<svg xmlns="http://www.w3.org/2000/svg" viewBox="0 0 192 192" role="img" aria-label="EchoFlow">
  <path fill="#fff" d="M96 18c43.08 0 78 34.92 78 78s-34.92 78-78 78-78-34.92-78-78 34.92-78 78-78Zm0 14c-35.35 0-64 28.65-64 64s28.65 64 64 64 64-28.65 64-64-28.65-64-64-64Z"/>
  <path fill="#fff" d="M65 73.5c0-8.56 6.94-15.5 15.5-15.5H129v16H80.5a.5.5 0 0 0-.5.5V88h42v16H80v13.5c0 .28.22.5.5.5H129v16H80.5c-8.56 0-15.5-6.94-15.5-15.5v-45Z"/>
  <path fill="#fff" d="M62 96c0-4.42 3.58-8 8-8h74c4.42 0 8 3.58 8 8s-3.58 8-8 8H70c-4.42 0-8-3.58-8-8Z"/>
  <path fill="#fff" d="M129 58h16v76h-16z"/>
</svg>
